<svg width="26" height="26" viewBox="0 0 26 26" fill="none" xmlns="http://www.w3.org/2000/svg">
<rect width="26" height="26" rx="7" fill="#0E0E0D"/>
<path d="M7.5 7.5H18.5V18.5H7.5V7.5Z" stroke="#FBFAF7" stroke-width="1.2"/>
<path d="M18.5 7.5L7.5 18.5" stroke="#FBFAF7" stroke-width="1.2"/>
<path d="M10.5 11.5C11.0523 11.5 11.5 11.0523 11.5 10.5C11.5 9.94772 11.0523 9.5 10.5 9.5C9.94772 9.5 9.5 9.94772 9.5 10.5C9.5 11.0523 9.94772 11.5 10.5 11.5Z" fill="#FBFAF7"/>
<path d="M15.5 16.5C16.0523 16.5 16.5 16.0523 16.5 15.5C16.5 14.9477 16.0523 14.5 15.5 14.5C14.9477 14.5 14.5 14.9477 14.5 15.5C14.5 16.0523 14.9477 16.5 15.5 16.5Z" fill="#FBFAF7"/>
</svg>
