<svg width="9" height="10" viewBox="0 0 9 10" fill="none" xmlns="http://www.w3.org/2000/svg">
<path d="M4.888 9.64599C4.316 9.64599 3.796 9.52899 3.328 9.29499C2.86867 9.05232 2.47 8.71865 2.132 8.29399C1.80267 7.86065 1.547 7.35365 1.365 6.77299C1.183 6.18365 1.092 5.53799 1.092 4.83599C1.092 4.13399 1.17867 3.48832 1.352 2.89899C1.534 2.30965 1.794 1.79832 2.132 1.36499C2.47 0.931655 2.86867 0.597988 3.328 0.363988C3.796 0.121321 4.316 -1.18613e-05 4.888 -1.18613e-05C5.434 -1.18613e-05 5.928 0.125655 6.37 0.376988C6.812 0.628321 7.18467 0.974988 7.488 1.41699C7.79134 1.85032 8.008 2.34865 8.138 2.91199L6.968 2.98999C6.82934 2.42665 6.57367 1.97165 6.201 1.62499C5.82834 1.26965 5.39067 1.09199 4.888 1.09199C4.316 1.09199 3.835 1.25665 3.445 1.58599C3.055 1.91532 2.76034 2.36165 2.561 2.92499C2.36167 3.48832 2.262 4.12532 2.262 4.83599C2.262 5.53799 2.36167 6.17065 2.561 6.73399C2.76034 7.29732 3.055 7.74365 3.445 8.07299C3.835 8.39365 4.316 8.55399 4.888 8.55399C5.42534 8.55399 5.88467 8.35465 6.266 7.95599C6.64734 7.55732 6.89867 7.05465 7.02 6.44799L8.216 6.52599C8.112 7.12399 7.90834 7.66132 7.605 8.13799C7.31034 8.60599 6.93334 8.97432 6.474 9.24299C6.01467 9.51165 5.486 9.64599 4.888 9.64599ZM3.70666e-06 6.38299V5.42099H5.213L5.07 6.38299H3.70666e-06ZM3.70666e-06 4.38099V3.41899H5.473L5.33 4.38099H3.70666e-06Z" fill="#6B6A66"/>
</svg>
