<svg width="10" height="17" viewBox="0 0 10 17" fill="none" xmlns="http://www.w3.org/2000/svg">
<path d="M0.219998 9.812C0.0733308 9.812 0.0146642 9.73866 0.0439975 9.592L0.109998 9.284C0.139331 9.13733 0.234664 9.064 0.395998 9.064H1.716C1.70133 8.74133 1.694 8.404 1.694 8.052C1.694 7.75866 1.70133 7.46533 1.716 7.172H0.219998C0.0733308 7.172 0.0146642 7.09866 0.0439975 6.952L0.109998 6.644C0.139331 6.49733 0.234664 6.424 0.395998 6.424H1.782C1.92866 5.11866 2.23666 3.98933 2.706 3.036C3.19 2.068 3.77666 1.32 4.466 0.791997C5.15533 0.263997 5.91066 -2.86102e-06 6.732 -2.86102e-06C7.216 -2.86102e-06 7.678 0.0586635 8.118 0.175996C8.558 0.278663 8.954 0.417997 9.306 0.593997C9.482 0.696664 9.57 0.850663 9.57 1.056L9.636 4.4C9.636 4.64933 9.548 4.774 9.372 4.774C9.21066 4.774 9.108 4.67866 9.064 4.488L8.844 3.674C8.536 2.54466 8.21333 1.76 7.876 1.32C7.55333 0.86533 7.128 0.637997 6.6 0.637997C5.808 0.637997 5.11866 1.13666 4.532 2.134C3.96 3.11666 3.608 4.54666 3.476 6.424H7.26C7.392 6.424 7.44333 6.49733 7.414 6.644L7.348 6.952C7.31866 7.09866 7.23066 7.172 7.084 7.172H3.432C3.41733 7.45066 3.41 7.744 3.41 8.052C3.41 8.404 3.41733 8.74133 3.432 9.064H6.71C6.842 9.064 6.89333 9.13733 6.864 9.284L6.798 9.592C6.76866 9.73866 6.68066 9.812 6.534 9.812H3.476C3.652 11.7187 4.04066 13.1633 4.642 14.146C5.258 15.1287 5.918 15.62 6.622 15.62C7.04733 15.62 7.39933 15.532 7.678 15.356C7.95666 15.18 8.19133 14.872 8.382 14.432C8.58733 13.992 8.78533 13.3907 8.976 12.628L9.24 11.55C9.284 11.33 9.40133 11.2347 9.592 11.264C9.75333 11.2933 9.834 11.418 9.834 11.638L9.746 15.202C9.746 15.4073 9.65066 15.5613 9.46 15.664C9.108 15.84 8.70466 15.9793 8.25 16.082C7.79533 16.1993 7.26733 16.258 6.666 16.258C5.80066 16.258 5.02333 16.0013 4.334 15.488C3.65933 14.96 3.102 14.212 2.662 13.244C2.222 12.276 1.92866 11.132 1.782 9.812H0.219998Z" fill="#6B6A66"/>
</svg>
